<svg xmlns="http://www.w3.org/2000/svg" width="264.223" height="46" viewBox="0 0 264.223 46">
  <g id="Groupe_5476" data-name="Groupe 5476" transform="translate(-30.069 -239.265)">
    <path id="Tracé_1816" data-name="Tracé 1816" d="M424.732,242.088a.483.483,0,0,1,.336-.169.319.319,0,0,1,.3.353.532.532,0,0,1-.169.357c-4.45,5.535-7.688,12-7.688,20.977s3.238,15.31,7.688,20.841a.541.541,0,0,1,.169.354.322.322,0,0,1-.3.358.487.487,0,0,1-.336-.173l-18.97-18.343a3.879,3.879,0,0,1,0-6.2l18.97-18.351Z" transform="translate(-179.307 -1.272)" fill="#dc051d"/>
    <path id="Tracé_1817" data-name="Tracé 1817" d="M462.105,239.265c-7.423,0-10.324,10.529-10.324,23.069s2.9,22.931,10.324,22.931c4.459,0,8.257-2.61,8.271-4.756a1.818,1.818,0,0,0-.573-1.31,8.347,8.347,0,0,1-2.948-5.881,6.045,6.045,0,0,1,5.717-5.994c3.778,0,6.005,2.97,6.005,6.812a15.946,15.946,0,0,1-3.24,9.11.565.565,0,0,0-.1.306.313.313,0,0,0,.283.347.51.51,0,0,0,.349-.185l18.974-18.343a3.881,3.881,0,0,0,0-6.2l-18.974-18.351a.527.527,0,0,0-.349-.182c-.175,0-.283.158-.283.349a.583.583,0,0,0,.1.308,15.941,15.941,0,0,1,3.24,9.1c0,3.842-2.227,6.817-6.005,6.817a6.05,6.05,0,0,1-5.717-6,8.342,8.342,0,0,1,2.948-5.875,1.832,1.832,0,0,0,.573-1.314c-.014-2.146-3.812-4.76-8.271-4.76Z" transform="translate(-202.105)" fill="#004a99"/>
    <path id="Tracé_1818" data-name="Tracé 1818" d="M57.269,280.891a5.817,5.817,0,0,1,2.431-4.846,10.285,10.285,0,0,1,6.124-1.718,11.351,11.351,0,0,1,4.236.759v-2.311c-.037-2.323-.915-3.644-3.527-3.675a9.024,9.024,0,0,0-2.474.433,4.232,4.232,0,0,1,.135,1.009,3.01,3.01,0,0,1-.717,2.018,2.616,2.616,0,0,1-2,.851,2.68,2.68,0,0,1-2.647-2.757c.035-2.827,3.46-4.725,8.039-4.725,3.632,0,5.914.861,7.13,2.426,1.107,1.406,1.158,3.459,1.162,6.355v7.547c.022,1.462.85,1.86,2.668,2.141l.208.026-.012.212a3.058,3.058,0,0,1-3.146,2.942c-.136.011-.273.018-.408.018a4,4,0,0,1-3.753-2.3,9.651,9.651,0,0,1-6.012,2.354c-4.224-.006-7.432-2.855-7.438-6.757Zm129.623,5.771a5.466,5.466,0,0,1-.761-1.963c-.209.235-.455.491-.83.85a7.555,7.555,0,0,1-5.214,2.072,6.82,6.82,0,0,1-5.308-2.27c-1.848-2.2-1.833-5-1.838-8.97v-3.828c-.039-1.548-.526-2.075-1.963-2.117a5.411,5.411,0,0,0-.609.038l-.173.019-.062-.161a2.168,2.168,0,0,1-.167-.824c.044-1.852,2.39-2.84,3.764-3.127a9.3,9.3,0,0,1,1.374-.148,2.986,2.986,0,0,1,2.469,1.006,4.035,4.035,0,0,1,.729,2.572l-.037,6.537a13.989,13.989,0,0,0,.7,5.378,2.788,2.788,0,0,0,2.862,1.708,3.519,3.519,0,0,0,3.257-1.759,7.629,7.629,0,0,0,.863-3.83v-5.291c-.04-1.548-.529-2.08-1.965-2.117a5.261,5.261,0,0,0-.607.038l-.174.019-.065-.161a2.2,2.2,0,0,1-.169-.824c.048-1.852,2.389-2.84,3.772-3.127a9.265,9.265,0,0,1,1.375-.148,2.994,2.994,0,0,1,2.471,1.006,4,4,0,0,1,.734,2.572c0,.749-.072,2.081-.072,7.647,0,2.352-.038,3.6-.038,3.982.034,1.6.576,2.322,2.059,2.352.157,0,.321-.014.507-.028l.168-.02.064.163a2.124,2.124,0,0,1,.166.8c-.058,1.808-2.408,2.531-3.767,2.8a8.9,8.9,0,0,1-1.287.144H189.1a2.524,2.524,0,0,1-2.207-.992Zm-74.241-9.535a11.539,11.539,0,0,1,2.939-8.038,10.3,10.3,0,0,1,7.7-3.16,8.376,8.376,0,0,1,6.414,2.6,7.977,7.977,0,0,1,2.066,5.331,6,6,0,0,1-.7,2.931l-.06.117H118.138a6.321,6.321,0,0,0,6.748,6.378,7,7,0,0,0,5.175-2.239l.138-.179.18.132a1.9,1.9,0,0,1,.761,1.686c-.011,2.161-2.541,4.927-8.148,4.929a10.341,10.341,0,0,1-10.341-10.485Zm45.614,10.452a10.492,10.492,0,0,1-7.462-3,10.889,10.889,0,0,1-3.1-7.867,10.644,10.644,0,0,1,10.751-10.787,10.519,10.519,0,0,1,7.6,2.99,10.887,10.887,0,0,1-7.787,18.66Zm39.439-.644c-.893-.244-1.47-.733-1.465-1.471a2.28,2.28,0,0,1,.24-.937l.047-.1.111-.022a3.363,3.363,0,0,0,1.406-.633c.535-.437.741-1.048.741-2.765v-8.641c-.039-1.458-.372-1.966-1.583-2a5.286,5.286,0,0,0-.961.1l-.188.034-.069-.174a2.531,2.531,0,0,1-.189-.924c.031-1.73,1.922-2.62,3.192-3.017a5,5,0,0,1,1.435-.233c1.729,0,2.667,1.238,3.064,2.833a5.914,5.914,0,0,1,4.712-3.094,3.168,3.168,0,0,1,3.351,3.166,2.9,2.9,0,0,1-2.772,3.021,2.668,2.668,0,0,1-2.666-2.1c-.98.323-2.363,1.553-2.379,5.812V281c.007,1.71.245,2.328.729,2.761a5.355,5.355,0,0,0,1.881.637l.114.022.049.108a2.47,2.47,0,0,1,.263,1.01c.006.7-.517,1.178-1.354,1.408a14.351,14.351,0,0,1-3.771.345,15.363,15.363,0,0,1-3.936-.358Zm-62.336,0c-.9-.249-1.478-.74-1.477-1.48a2.247,2.247,0,0,1,.238-.928l.049-.1.114-.022a3.5,3.5,0,0,0,1.421-.627c.52-.443.732-1.054.74-2.771V269.644l-3.053-.105-.054-.136a2.776,2.776,0,0,1-.234-1.069,1.834,1.834,0,0,1,1.928-1.848h1.334v-1.258c0-3.038.567-4.766,1.34-5.926,1.188-1.848,3.252-3.119,6.4-3.113,3.957,0,7.271,1.839,7.291,4.8a2.78,2.78,0,0,1-2.754,2.87,2.716,2.716,0,0,1-2.681-2.643,2.809,2.809,0,0,1,.451-1.5,3.172,3.172,0,0,0-1.973-.579,2.449,2.449,0,0,0-2.327,1.137,5.8,5.8,0,0,0-.567,2.908v3.269h5.24l.06.142a2.834,2.834,0,0,1,.229,1.1,2.03,2.03,0,0,1-1.828,2.083c-.39.039-.807.039-1.175.039-.873,0-1.736-.062-2.377-.074V281c0,1.7.286,2.315.8,2.761a6.354,6.354,0,0,0,2.139.637l.114.02.047.11a2.021,2.021,0,0,1,.216.857c0,.78-.634,1.271-1.593,1.53a16.078,16.078,0,0,1-4.113.376,15.48,15.48,0,0,1-3.946-.358Zm-36.569,0c-.892-.244-1.465-.735-1.463-1.471a2.293,2.293,0,0,1,.242-.933l.049-.108.116-.022a3.472,3.472,0,0,0,1.415-.627c.521-.443.735-1.054.738-2.771v-8.641c-.043-1.458-.382-1.966-1.589-2a5.266,5.266,0,0,0-.964.1l-.184.034-.07-.174a2.488,2.488,0,0,1-.195-.942c.032-1.72,1.922-2.6,3.2-3a4.892,4.892,0,0,1,1.41-.233c1.74,0,2.68,1.222,3.084,2.794a5.942,5.942,0,0,1,4.72-3.054,3.18,3.18,0,0,1,3.352,3.165,2.906,2.906,0,0,1-2.794,3.021,2.64,2.64,0,0,1-2.643-2.1c-.989.324-2.4,1.556-2.41,5.812V281c.008,1.71.255,2.323.768,2.761a5.09,5.09,0,0,0,1.874.637l.114.022.05.108a2.417,2.417,0,0,1,.258,1c.009.7-.52,1.182-1.363,1.416a14.348,14.348,0,0,1-3.784.347,15.332,15.332,0,0,1-3.932-.358Zm-17.283,0c-.891-.244-1.46-.735-1.458-1.471a2.253,2.253,0,0,1,.239-.933l.049-.108.112-.022a3.485,3.485,0,0,0,1.422-.627c.521-.443.733-1.054.738-2.771v-8.641c-.045-1.458-.385-1.966-1.6-2a5.276,5.276,0,0,0-.961.1l-.185.034-.068-.174a2.518,2.518,0,0,1-.195-.942c.031-1.72,1.921-2.6,3.2-3a4.863,4.863,0,0,1,1.4-.233c1.742,0,2.68,1.222,3.086,2.79a5.954,5.954,0,0,1,4.722-3.051,3.183,3.183,0,0,1,3.354,3.166,2.909,2.909,0,0,1-2.8,3.021,2.644,2.644,0,0,1-2.645-2.1c-.99.324-2.393,1.556-2.406,5.812V281c0,1.71.248,2.323.764,2.761a5.075,5.075,0,0,0,1.875.637l.116.022.048.108a2.42,2.42,0,0,1,.261,1c.006.7-.522,1.182-1.367,1.416a14.34,14.34,0,0,1-3.786.347,15.358,15.358,0,0,1-3.932-.358Zm72.071-10.81c.008,5.678,2.477,8.119,4.9,8.128,2.769-.005,4.772-2.448,4.79-7.23a10.613,10.613,0,0,0-1.453-5.847,4.218,4.218,0,0,0-3.56-2.075c-2.874,0-4.665,2.6-4.678,7.022ZM66.72,277.318c-2.279.023-3.815,1.095-3.825,3.214a3.24,3.24,0,0,0,3.489,3.359,4.912,4.912,0,0,0,3.677-1.857V279.1a1.489,1.489,0,0,0-.827-1.189,4.815,4.815,0,0,0-2.513-.6Zm59.062-3.432c.41-.007.522-.1.6-.233a1.718,1.718,0,0,0,.1-.757,3.849,3.849,0,0,0-3.933-3.795c-2.976,0-4.181,2.379-4.367,4.783h7.6v0ZM34.2,283.854a15.445,15.445,0,0,1-4.127-11.016,15.838,15.838,0,0,1,4.051-10.917,12.807,12.807,0,0,1,9.372-4.191c6.353.011,10.839,4.454,10.861,8.3,0,2.054-1.3,3.644-3.063,3.648a3.3,3.3,0,0,1-2.28-.858,3.188,3.188,0,0,1-.966-2.384,3.517,3.517,0,0,1,1.075-2.456,5.553,5.553,0,0,0-5.078-2.649,6.382,6.382,0,0,0-5.392,3.155,15.146,15.146,0,0,0-2.124,8.315,14.751,14.751,0,0,0,2.193,8.289,6.577,6.577,0,0,0,5.471,3.146,5.529,5.529,0,0,0,5.076-2.65,3.46,3.46,0,0,1-1.074-2.437,3.211,3.211,0,0,1,.965-2.394,3.312,3.312,0,0,1,2.28-.859c1.761,0,3.058,1.584,3.064,3.634-.019,3.861-4.508,8.288-10.86,8.3a13.153,13.153,0,0,1-9.443-3.975Zm0,0a15.445,15.445,0,0,1-4.127-11.016,15.838,15.838,0,0,1,4.051-10.917,12.807,12.807,0,0,1,9.372-4.191c6.353.011,10.839,4.454,10.861,8.3,0,2.054-1.3,3.644-3.063,3.648a3.3,3.3,0,0,1-2.28-.858,3.188,3.188,0,0,1-.966-2.384,3.517,3.517,0,0,1,1.075-2.456,5.553,5.553,0,0,0-5.078-2.649,6.382,6.382,0,0,0-5.392,3.155,15.146,15.146,0,0,0-2.124,8.315,14.751,14.751,0,0,0,2.193,8.289,6.577,6.577,0,0,0,5.471,3.146,5.529,5.529,0,0,0,5.076-2.65,3.46,3.46,0,0,1-1.074-2.437,3.211,3.211,0,0,1,.965-2.394,3.312,3.312,0,0,1,2.28-.859c1.761,0,3.058,1.584,3.064,3.634-.019,3.861-4.508,8.288-10.86,8.3a13.153,13.153,0,0,1-9.443-3.975Zm0,0a15.445,15.445,0,0,1-4.127-11.016,15.838,15.838,0,0,1,4.051-10.917,12.807,12.807,0,0,1,9.372-4.191c6.353.011,10.839,4.454,10.861,8.3,0,2.054-1.3,3.644-3.063,3.648a3.3,3.3,0,0,1-2.28-.858,3.188,3.188,0,0,1-.966-2.384,3.517,3.517,0,0,1,1.075-2.456,5.553,5.553,0,0,0-5.078-2.649,6.382,6.382,0,0,0-5.392,3.155,15.146,15.146,0,0,0-2.124,8.315,14.751,14.751,0,0,0,2.193,8.289,6.577,6.577,0,0,0,5.471,3.146,5.529,5.529,0,0,0,5.076-2.65,3.46,3.46,0,0,1-1.074-2.437,3.211,3.211,0,0,1,.965-2.394,3.312,3.312,0,0,1,2.28-.859c1.761,0,3.058,1.584,3.064,3.634-.019,3.861-4.508,8.288-10.86,8.3a13.153,13.153,0,0,1-9.443-3.975Z" transform="translate(0 -8.111)" fill="#004a99"/>
  </g>
</svg>
